<svg width="180" height="180" viewBox="0 0 180 180" xmlns="http://www.w3.org/2000/svg">
  <defs>
    <linearGradient id="mainGradient" x1="0%" y1="0%" x2="100%" y2="100%">
      <stop offset="0%" style="stop-color:#4285f4;stop-opacity:1" />
      <stop offset="50%" style="stop-color:#0f9d58;stop-opacity:1" />
      <stop offset="100%" style="stop-color:#34a853;stop-opacity:1" />
    </linearGradient>
    <linearGradient id="shadowGradient" x1="0%" y1="0%" x2="100%" y2="100%">
      <stop offset="0%" style="stop-color:#000000;stop-opacity:0.1" />
      <stop offset="100%" style="stop-color:#000000;stop-opacity:0.3" />
    </linearGradient>
  </defs>
  
  <!-- iOS icon background with rounded corners -->
  <rect x="0" y="0" width="180" height="180" rx="40" ry="40" fill="url(#mainGradient)"/>
  
  <!-- Subtle shadow overlay for depth -->
  <rect x="0" y="0" width="180" height="180" rx="40" ry="40" fill="url(#shadowGradient)"/>
  
  <!-- Main marketplace icon centered -->
  <g transform="translate(90, 90)">
    <!-- Shopping bag icon scaled for 180x180 -->
    <g transform="scale(2.5)">
      <!-- Bag body -->
      <rect x="-15" y="-10" width="30" height="35" rx="3" ry="3" fill="#ffffff" opacity="0.95"/>
      
      <!-- Bag handles -->
      <path d="M -8 -10 Q -8 -20 0 -20 Q 8 -20 8 -10" stroke="#ffffff" stroke-width="3" fill="none" opacity="0.95"/>
      
      <!-- Decorative elements for Bazar branding -->
      <circle cx="0" cy="5" r="3" fill="url(#mainGradient)" opacity="0.8"/>
      
      <!-- Shopping items inside bag -->
      <rect x="-8" y="8" width="16" height="2" rx="1" fill="url(#mainGradient)" opacity="0.6"/>
      <rect x="-6" y="12" width="12" height="2" rx="1" fill="url(#mainGradient)" opacity="0.4"/>
      <rect x="-4" y="16" width="8" height="2" rx="1" fill="url(#mainGradient)" opacity="0.3"/>
    </g>
    
    <!-- Subtle highlight on top left for iOS style -->
    <ellipse cx="-40" cy="-40" rx="20" ry="15" fill="#ffffff" opacity="0.15"/>
  </g>
</svg>